<?xml version="1.0" encoding="utf-8"?>
<!-- Generator: Adobe Illustrator 24.3.0, SVG Export Plug-In . SVG Version: 6.00 Build 0)  -->
<svg version="1.1" id="Layer_1" xmlns="http://www.w3.org/2000/svg" xmlns:xlink="http://www.w3.org/1999/xlink" x="0px" y="0px"
	 viewBox="0 0 42 32" style="enable-background:new 0 0 42 32;" xml:space="preserve">
<style type="text/css">
	.st0{opacity:0.15;fill-rule:evenodd;clip-rule:evenodd;fill:url(#SVGID_1_);enable-background:new    ;}
	.st1{fill:url(#SVGID_2_);stroke:url(#SVGID_3_);stroke-width:0.25;}
	.st2{fill:url(#SVGID_4_);stroke:url(#SVGID_5_);stroke-width:0.25;}
	.st3{fill:none;stroke:url(#SVGID_6_);stroke-width:1.3;}
	.st4{fill:none;stroke:url(#SVGID_7_);stroke-width:1.1;}
	.st5{fill:none;stroke:url(#SVGID_8_);stroke-width:1.3;}
</style>
<linearGradient id="SVGID_1_" gradientUnits="userSpaceOnUse" x1="11.6432" y1="33.4163" x2="30.5133" y2="1.0624" gradientTransform="matrix(1 0 0 -1 0 34)">
	<stop  offset="0.2593" style="stop-color:#FFDB6E"/>
	<stop  offset="1" style="stop-color:#FFBC5E"/>
</linearGradient>
<path class="st0" d="M2,6.9c0-1.1,0.9-2,2-2h34.8c1.1,0,2,0.9,2,2v21c0,1.1-0.9,2-2,2H24.8c4.2-1.4,7.3-5.3,7.3-10
	c0-5.8-4.7-10.5-10.5-10.5S11,14.1,11,19.9c0,4.7,3.1,8.6,7.3,10H4c-1.1,0-2-0.9-2-2V6.9z M21.5,24.9c2.8,0,5-2.2,5-5s-2.2-5-5-5
	s-5,2.2-5,5S18.8,24.9,21.5,24.9z"/>
<linearGradient id="SVGID_2_" gradientUnits="userSpaceOnUse" x1="24.7963" y1="25.6852" x2="38.1865" y2="10.8927" gradientTransform="matrix(1 0 0 -1 0 34)">
	<stop  offset="0.2593" style="stop-color:#FFDB6E"/>
	<stop  offset="1" style="stop-color:#FFBC5E"/>
</linearGradient>
<linearGradient id="SVGID_3_" gradientUnits="userSpaceOnUse" x1="24.7963" y1="25.6852" x2="38.1865" y2="10.8927" gradientTransform="matrix(1 0 0 -1 0 34)">
	<stop  offset="0.2593" style="stop-color:#FFDB6E"/>
	<stop  offset="1" style="stop-color:#FFBC5E"/>
</linearGradient>
<path class="st1" d="M24,16c0-4.3,3.5-7.8,7.8-7.8s7.8,3.5,7.8,7.8c0,4.3-3.5,7.8-7.8,7.8S24,20.3,24,16z M24.9,16
	c0,3.8,3.1,6.8,6.8,6.8s6.8-3.1,6.8-6.8s-3.1-6.8-6.8-6.8S24.9,12.2,24.9,16z"/>
<linearGradient id="SVGID_4_" gradientUnits="userSpaceOnUse" x1="22.8659" y1="25.9731" x2="32.1528" y2="15.7134" gradientTransform="matrix(1 0 0 -1 0 34)">
	<stop  offset="0.2593" style="stop-color:#FFDB6E"/>
	<stop  offset="1" style="stop-color:#FFBC5E"/>
</linearGradient>
<linearGradient id="SVGID_5_" gradientUnits="userSpaceOnUse" x1="22.8659" y1="25.9731" x2="32.1528" y2="15.7134" gradientTransform="matrix(1 0 0 -1 0 34)">
	<stop  offset="0.2593" style="stop-color:#FFDB6E"/>
	<stop  offset="1" style="stop-color:#FFBC5E"/>
</linearGradient>
<path class="st2" d="M22.3,13.4c0-3,2.4-5.4,5.4-5.4c3,0,5.4,2.4,5.4,5.4c0,3-2.4,5.4-5.4,5.4S22.3,16.3,22.3,13.4z M23.2,13.4
	c0,2.5,2,4.5,4.5,4.5s4.5-2,4.5-4.5c0-2.5-2-4.5-4.5-4.5S23.2,10.9,23.2,13.4z"/>
<linearGradient id="SVGID_6_" gradientUnits="userSpaceOnUse" x1="3.7923" y1="23.9054" x2="18.3117" y2="19.4137" gradientTransform="matrix(0.8893 -0.4574 0.4574 0.8893 -8.9154 7.7202)">
	<stop  offset="0.2593" style="stop-color:#FFDB6E"/>
	<stop  offset="1" style="stop-color:#FFBC5E"/>
</linearGradient>
<path class="st3" d="M5.6,27.2c0,0,0.7,0.5,1.4,0.6c0.7,0.1,9.4-6.9,9.8-7.6c0.4-0.6,0.7-3.1,0.4-3.4c-0.4-0.3-1.3-1.3-2.1-1.2
	c-0.7,0-2.6,1-3.4,1.4c-0.8,0.4-6.6,9.3-6.4,9.6S5.6,27.2,5.6,27.2z"/>
<linearGradient id="SVGID_7_" gradientUnits="userSpaceOnUse" x1="13.5112" y1="12.3364" x2="19.1927" y2="10.5788" gradientTransform="matrix(0.9817 0.1905 -0.1905 0.9817 3.8472 -2.2109)">
	<stop  offset="0.2593" style="stop-color:#FFDB6E"/>
	<stop  offset="1" style="stop-color:#FFBC5E"/>
</linearGradient>
<path class="st4" d="M17,15c0.1,0,0.1,0,0.2,0.1c1.3,0.4,2.9-1.8,2.2-3.3c-0.8-1.6,0.3-2.5,0.3-2.5s-2.5-0.5-3.5,1.4
	s-1.1,3.3-0.1,3.9C17.3,15.3,17,15,17,15"/>
<linearGradient id="SVGID_8_" gradientUnits="userSpaceOnUse" x1="1.3108" y1="23.8117" x2="39.8273" y2="11.8964">
	<stop  offset="0.2593" style="stop-color:#FFDB6E"/>
	<stop  offset="1" style="stop-color:#FFBC5E"/>
</linearGradient>
<path class="st5" d="M38.1,30.3H4.6c-1.5,0-2.8-1.2-2.8-2.8V7.7c0-1.5,1.2-2.8,2.8-2.8h33.5c1.5,0,2.8,1.2,2.8,2.8v19.9
	C40.8,29.1,39.6,30.3,38.1,30.3z"/>
</svg>
